<svg width="281" height="256" viewBox="0 0 281 256" fill="none" xmlns="http://www.w3.org/2000/svg">
<path d="M164.277 121.4C169.052 121.4 172.923 117.529 172.923 112.754C172.923 107.979 169.052 104.108 164.277 104.108C159.502 104.108 155.631 107.979 155.631 112.754C155.631 117.529 159.502 121.4 164.277 121.4Z" fill="#F92B2B"/>
<path d="M116.723 121.4C121.498 121.4 125.369 117.529 125.369 112.754C125.369 107.979 121.498 104.108 116.723 104.108C111.948 104.108 108.077 107.979 108.077 112.754C108.077 117.529 111.948 121.4 116.723 121.4Z" fill="#F92B2B"/>
<path d="M140.481 125.723C122.521 125.721 104.876 130.312 89.3226 139.036C73.7687 147.76 60.8538 160.309 51.8768 175.42C60.852 190.54 73.7681 203.096 89.3255 211.827C104.883 220.557 122.533 225.154 140.5 225.154C158.467 225.154 176.117 220.557 191.674 211.827C207.232 203.096 220.148 190.54 229.123 175.42C220.144 160.303 207.223 147.75 191.662 139.026C176.101 130.302 158.448 125.713 140.481 125.723V125.723ZM140.481 162.331C133.996 162.331 127.777 159.828 123.191 155.374C118.605 150.919 116.029 144.878 116.029 138.578H164.934C164.934 144.865 162.368 150.896 157.798 155.348C153.228 159.801 147.028 162.312 140.556 162.331H140.481Z" fill="#F92B2B"/>
<path d="M53.279 81.393C53.2186 61.1129 60.5369 41.5124 73.8519 26.2923H53.1066C23.7764 26.2923 0 50.2253 0 78.1136V156.59C0 162.162 2.19905 167.506 6.11338 171.446C10.0277 175.386 15.3367 177.6 20.8724 177.6H52.426V162.071C52.4236 157.691 50.6941 153.492 47.6177 150.395C44.5412 147.299 40.3693 145.558 36.0185 145.555H27.361C26.5512 145.555 25.7494 145.394 25.002 145.08C24.2547 144.766 23.5766 144.306 23.0069 143.727C22.4373 143.147 21.9874 142.46 21.6833 141.705C21.3792 140.949 21.227 140.141 21.2354 139.325C21.2497 137.7 21.9014 136.145 23.0487 135.001C24.1959 133.856 25.7457 133.214 27.361 133.214H53.1066C64.3977 133.209 75.3938 129.584 84.5003 122.865C93.6069 116.145 100.351 106.681 103.754 95.8442H53.1973L53.279 81.393" fill="#F92B2B"/>
<path fill-rule="evenodd" clip-rule="evenodd" d="M83.6039 82.4923C83.6039 74.7942 85.0756 67.1715 87.9349 60.0593C90.7941 52.9472 94.9851 46.485 100.268 41.0416C105.552 35.5982 111.824 31.2803 118.727 28.3343C125.63 25.3884 133.028 23.8721 140.5 23.8721C147.972 23.8721 155.37 25.3884 162.273 28.3343C169.176 31.2803 175.448 35.5982 180.732 41.0416C186.015 46.485 190.206 52.9472 193.065 60.0593C195.924 67.1715 197.396 74.7942 197.396 82.4923H211.831C211.831 63.0009 204.316 44.3079 190.938 30.5254C177.561 16.7429 159.418 9 140.5 9C121.582 9 103.439 16.7429 90.0615 30.5254C76.6844 44.3079 69.1692 63.0009 69.1692 82.4923H83.6039ZM172.595 48.6909C166.212 42.088 158.067 37.6034 149.203 35.8112C140.339 34.019 131.159 35.0007 122.838 38.6306C114.517 42.2606 107.434 48.3737 102.494 56.1875C97.555 64.0013 94.9846 73.1603 95.1121 82.4923H110.378C110.338 78.4045 111.077 74.3486 112.554 70.5562C114.031 66.7638 116.216 63.3091 118.985 60.3893C121.754 57.4696 125.053 55.142 128.692 53.5394C132.332 51.9369 136.241 51.0908 140.197 51.0494C144.153 51.008 148.078 51.7722 151.748 53.2983C155.419 54.8244 158.762 57.0825 161.588 59.9437C164.413 62.8049 166.666 66.2132 168.217 69.974C169.768 73.7347 170.586 77.7743 170.626 81.8621V82.4923H185.892V81.8621C185.908 75.6992 184.741 69.5941 182.459 63.9003C180.176 58.2064 176.824 53.0369 172.595 48.6909ZM153.116 73.4155C154.76 76.0882 155.629 79.1554 155.631 82.2829C155.629 85.7962 154.534 89.2238 152.492 92.1002C150.451 94.9765 147.563 97.1621 144.221 98.3598V117.077H132.455V98.3598C129.479 97.2958 126.856 95.4451 124.871 93.0094C122.886 90.5738 121.615 87.6464 121.197 84.5463C120.78 81.4462 121.23 78.2923 122.501 75.4279C123.772 72.5636 125.813 70.0988 128.403 68.302C130.994 66.5052 134.033 65.4453 137.191 65.2377C140.348 65.0301 143.503 65.6829 146.311 67.1248C149.119 68.5668 151.473 70.7427 153.116 73.4155Z" fill="#4A4AFF"/>
<path d="M227.716 81.4387C227.786 61.1449 220.47 41.5277 207.151 26.2923H227.889C257.221 26.2923 281 50.2253 281 78.1136V156.59C281 162.162 278.801 167.506 274.886 171.446C270.971 175.386 265.662 177.6 260.126 177.6H228.578V162.071C228.578 157.692 230.306 153.493 233.381 150.396C236.457 147.299 240.628 145.558 244.978 145.555H253.618C254.429 145.557 255.231 145.396 255.979 145.082C256.727 144.769 257.406 144.309 257.975 143.73C258.545 143.15 258.995 142.462 259.299 141.706C259.603 140.95 259.754 140.141 259.744 139.325V139.325C259.73 137.7 259.078 136.145 257.931 135.001C256.784 133.856 255.234 133.214 253.618 133.214H227.889C216.604 133.214 205.613 129.597 196.508 122.888C187.402 116.179 180.656 106.726 177.246 95.899H227.798L227.716 81.4478" fill="#F92B2B"/>
<path fill-rule="evenodd" clip-rule="evenodd" d="M224.224 194.925H210.508C208.851 194.925 207.508 193.581 207.508 191.925V180.6C207.508 178.943 208.851 177.6 210.508 177.6H224.224C233.549 177.6 242.492 181.144 249.086 187.452C255.68 193.759 259.384 202.315 259.384 211.235V230.8C259.384 232.457 258.041 233.8 256.384 233.8H244.274C242.618 233.8 241.274 232.457 241.274 230.8V211.235C241.274 206.909 239.478 202.761 236.281 199.702C233.083 196.643 228.746 194.925 224.224 194.925Z" fill="#F92B2B"/>
<path fill-rule="evenodd" clip-rule="evenodd" d="M196.788 207.877H175.923C174.266 207.877 172.923 206.534 172.923 204.877V193.569C172.923 191.912 174.266 190.569 175.923 190.569H196.788C204.217 190.569 211.342 193.392 216.595 198.417C221.849 203.443 224.8 210.258 224.8 217.365V243.769C224.8 245.426 223.457 246.769 221.8 246.769H209.706C208.049 246.769 206.706 245.426 206.706 243.769V217.365C206.706 214.849 205.661 212.435 203.801 210.656C201.941 208.877 199.418 207.877 196.788 207.877Z" fill="#F92B2B"/>
<path fill-rule="evenodd" clip-rule="evenodd" d="M31.9136 187.452C38.5074 181.144 47.4505 177.6 56.7756 177.6H70.4923C72.1491 177.6 73.4923 178.943 73.4923 180.6V191.925C73.4923 193.581 72.1491 194.925 70.4923 194.925H56.7756C52.2536 194.925 47.9169 196.643 44.7193 199.702C41.5218 202.761 39.7255 206.909 39.7255 211.235V230.8C39.7255 232.457 38.3823 233.8 36.7255 233.8H24.6154C22.9585 233.8 21.6154 232.457 21.6154 230.8V211.235C21.6154 202.315 25.3197 193.759 31.9136 187.452Z" fill="#F92B2B"/>
<path fill-rule="evenodd" clip-rule="evenodd" d="M64.4104 198.417C69.6675 193.392 76.7976 190.569 84.2322 190.569H105.077C106.734 190.569 108.077 191.912 108.077 193.569V204.877C108.077 206.534 106.734 207.877 105.077 207.877H84.2322C81.5998 207.877 79.0753 208.877 77.2139 210.656C75.3525 212.435 74.3068 214.849 74.3068 217.365V243.769C74.3068 245.426 72.9637 246.769 71.3068 246.769H59.2C57.5431 246.769 56.2 245.426 56.2 243.769V217.365C56.2 210.258 59.1533 203.443 64.4104 198.417Z" fill="#F92B2B"/>
</svg>
