<svg id="Designed" xmlns="http://www.w3.org/2000/svg" xmlns:xlink="http://www.w3.org/1999/xlink" viewBox="0 0 500 500"><defs><style>.cls-1{fill:url(#Degradado_sin_nombre_17);}.cls-2{fill:#58d687;}.cls-3{fill:url(#Degradado_sin_nombre_10);}.cls-4{fill:url(#Degradado_sin_nombre_31);}.cls-5{fill:#8030d1;}.cls-6{fill:url(#Degradado_sin_nombre_23);}</style><linearGradient id="Degradado_sin_nombre_17" x1="129.39" y1="83.35" x2="56.4" y2="162.54" gradientUnits="userSpaceOnUse"><stop offset="0" stop-color="#287d8c"/><stop offset="1" stop-color="#50b5db"/></linearGradient><linearGradient id="Degradado_sin_nombre_10" x1="449.01" y1="190.97" x2="266.02" y2="78.2" gradientUnits="userSpaceOnUse"><stop offset="0" stop-color="#ffe286"/><stop offset="1" stop-color="#ffcd1d"/></linearGradient><linearGradient id="Degradado_sin_nombre_31" x1="99.7" y1="309.69" x2="146.19" y2="485.35" gradientUnits="userSpaceOnUse"><stop offset="0.01" stop-color="#ff9464"/><stop offset="1" stop-color="#b3553a"/></linearGradient><linearGradient id="Degradado_sin_nombre_23" x1="547.05" y1="208.96" x2="252.56" y2="438.86" gradientUnits="userSpaceOnUse"><stop offset="0" stop-color="#ff7da1"/><stop offset="1" stop-color="#f20b4f"/></linearGradient></defs><title>favicon</title><g id="_Group_" data-name="&lt;Group&gt;"><g id="_Group_2" data-name="&lt;Group&gt;"><g id="_Group_3" data-name="&lt;Group&gt;"><path id="_Path_" data-name="&lt;Path&gt;" class="cls-1" d="M232.54,165.43a124.47,124.47,0,0,1-106.95,60.76h0A101.77,101.77,0,0,1,23.82,124.41V0L132.31,95.94A517.46,517.46,0,0,0,232.54,165.43Z"/><path id="_Path_2" data-name="&lt;Path&gt;" class="cls-2" d="M250,0V101.78a123.87,123.87,0,0,1-17.46,63.65A517.46,517.46,0,0,1,132.31,95.94L23.82,0Z"/><path id="_Path_3" data-name="&lt;Path&gt;" class="cls-3" d="M476.18,226.19a518.87,518.87,0,0,1-243.64-60.76A123.87,123.87,0,0,0,250,101.78V0A226.12,226.12,0,0,1,476.18,226.19Z"/><path id="_Path_4" data-name="&lt;Path&gt;" class="cls-4" d="M232.54,334.57a517.71,517.71,0,0,0-100.23,69.54L23.82,500V375.59A101.77,101.77,0,0,1,125.59,273.81h0A124.47,124.47,0,0,1,232.54,334.57Z"/><path id="_Path_5" data-name="&lt;Path&gt;" class="cls-5" d="M250,398.22V500H23.82l108.49-95.89a517.71,517.71,0,0,1,100.23-69.54A123.87,123.87,0,0,1,250,398.22Z"/><path id="_Path_6" data-name="&lt;Path&gt;" class="cls-6" d="M476.18,273.81A226.12,226.12,0,0,1,250,500V398.22a123.87,123.87,0,0,0-17.46-63.65A518.87,518.87,0,0,1,476.18,273.81Z"/></g></g></g></svg>